<svg width="10" height="10" viewBox="0 0 10 10" fill="none" xmlns="http://www.w3.org/2000/svg">
<path d="M8.72552 2.39261C9.03475 2.08338 9.03475 1.58119 8.72552 1.27196C8.41629 0.962732 7.9141 0.962732 7.60487 1.27196L4.99992 3.87939L2.39249 1.27444C2.08326 0.965205 1.58107 0.965205 1.27184 1.27444C0.962609 1.58367 0.962609 2.08585 1.27184 2.39508L3.87927 5.00004L1.27431 7.60747C0.965083 7.9167 0.965083 8.41889 1.27431 8.72812C1.58354 9.03735 2.08573 9.03735 2.39496 8.72812L4.99992 6.12069L7.60734 8.72564C7.91657 9.03487 8.41876 9.03487 8.72799 8.72564C9.03722 8.41641 9.03722 7.91422 8.72799 7.60499L6.12057 5.00004L8.72552 2.39261Z" fill="#F1F1EF" stroke="#F1F1EF" stroke-width="0.5"/>
</svg>
