<svg width="13" height="13" viewBox="0 0 13 13" fill="none" xmlns="http://www.w3.org/2000/svg">
    <path d="M11.7768 3.0626C12.2023 2.63709 12.2023 1.94606 11.7768 1.52055C11.3513 1.09504 10.6603 1.09504 10.2348 1.52055L6.65026 5.10846L3.06236 1.52395C2.63684 1.09844 1.94582 1.09844 1.5203 1.52395C1.09479 1.94946 1.09479 2.64049 1.5203 3.066L5.10821 6.65051L1.52371 10.2384C1.0982 10.6639 1.0982 11.355 1.52371 11.7805C1.94922 12.206 2.64025 12.206 3.06576 11.7805L6.65026 8.19256L10.2382 11.7771C10.6637 12.2026 11.3547 12.2026 11.7802 11.7771C12.2057 11.3515 12.2057 10.6605 11.7802 10.235L8.19231 6.65051L11.7768 3.0626Z"
          fill="#125365" stroke="#125365"/>
</svg>
