<svg width="147" height="40" viewBox="0 0 147 40" fill="none" xmlns="http://www.w3.org/2000/svg">
<path d="M9.33719 15.8936H14.3376L16.1433 18.1976L19.1991 21.7243L23.181 26.6146H17.486L14.6617 23.276L12.7634 20.5017L9.33719 15.8936ZM23.1347 12.7901C23.1347 15.4704 22.6215 17.7313 21.5952 19.573C20.5689 21.4069 19.1837 22.798 17.4397 23.7462C15.6958 24.6867 13.7511 25.1569 11.6059 25.1569C9.44523 25.1569 7.4929 24.6827 5.74893 23.7345C4.01267 22.7784 2.63138 21.3834 1.60506 19.5495C0.586451 17.7078 0.0771484 15.4547 0.0771484 12.7901C0.0771484 10.1099 0.586451 7.85281 1.60506 6.01895C2.63138 4.17726 4.01267 2.78619 5.74893 1.84575C7.4929 0.897478 9.44523 0.42334 11.6059 0.42334C13.7511 0.42334 15.6958 0.897478 17.4397 1.84575C19.1837 2.78619 20.5689 4.17726 21.5952 6.01895C22.6215 7.85281 23.1347 10.1099 23.1347 12.7901ZM16.5137 12.7901C16.5137 11.3481 16.3247 10.1334 15.9465 9.14591C15.5761 8.15061 15.0244 7.39826 14.2913 6.88886C13.5659 6.37162 12.6708 6.113 11.6059 6.113C10.541 6.113 9.642 6.37162 8.90891 6.88886C8.18354 7.39826 7.6318 8.15061 7.25368 9.14591C6.88328 10.1334 6.69808 11.3481 6.69808 12.7901C6.69808 14.2321 6.88328 15.4508 7.25368 16.4461C7.6318 17.4335 8.18354 18.1859 8.90891 18.7031C9.642 19.2125 10.541 19.4672 11.6059 19.4672C12.6708 19.4672 13.5659 19.2125 14.2913 18.7031C15.0244 18.1859 15.5761 17.4335 15.9465 16.4461C16.3247 15.4508 16.5137 14.2321 16.5137 12.7901Z" fill="#F1F1EF"/>
<path d="M39.9262 0.42334H46.3619V15.8465C46.3619 17.6804 45.9298 19.2674 45.0655 20.6075C44.209 21.9398 43.0129 22.9704 41.4772 23.6992C39.9416 24.4202 38.1591 24.7807 36.1296 24.7807C34.0846 24.7807 32.2944 24.4202 30.7587 23.6992C29.2231 22.9704 28.027 21.9398 27.1705 20.6075C26.3216 19.2674 25.8972 17.6804 25.8972 15.8465V0.42334H32.3329V15.2823C32.3329 16.0268 32.495 16.6929 32.8191 17.2807C33.1432 17.8606 33.5908 18.3152 34.1618 18.6443C34.7406 18.9735 35.3965 19.1381 36.1296 19.1381C36.8704 19.1381 37.5263 18.9735 38.0973 18.6443C38.6684 18.3152 39.1159 17.8606 39.44 17.2807C39.7641 16.6929 39.9262 16.0268 39.9262 15.2823V0.42334Z" fill="#F1F1EF"/>
<path d="M55.5141 0.42334V24.4986H49.0784V0.42334H55.5141Z" fill="#F1F1EF"/>
<path d="M58.2302 24.4986V20.8779L69.4349 5.6898H58.2765V0.42334H77.63V4.04403L66.4254 19.2321H77.5837V24.4986H58.2302Z" fill="#F1F1EF"/>
<path d="M142.01 34.6827L143.468 30.4331H145.17L142.757 37.2043H141.263L138.919 30.4331H140.621L142.01 34.6827ZM140.135 30.4331V37.2043H137.878V30.4331H140.135ZM144.041 37.2043V30.4331H146.264V37.2043H144.041Z" fill="#F1F1EF"/>
<path d="M132.514 37.3099C132.088 37.3099 131.712 37.2393 131.385 37.0983C131.061 36.9542 130.807 36.7368 130.621 36.4458C130.436 36.1549 130.344 35.7846 130.344 35.3349C130.344 34.9646 130.406 34.6487 130.53 34.3871C130.655 34.1226 130.828 33.9066 131.051 33.7391C131.274 33.5716 131.533 33.4438 131.828 33.3556C132.126 33.2674 132.447 33.2101 132.792 33.1837C133.165 33.1543 133.464 33.119 133.69 33.0779C133.919 33.0338 134.084 32.9735 134.185 32.8971C134.286 32.8178 134.337 32.7135 134.337 32.5841V32.5665C134.337 32.3902 134.27 32.255 134.137 32.1609C134.004 32.0669 133.833 32.0199 133.625 32.0199C133.396 32.0199 133.21 32.0713 133.065 32.1742C132.923 32.2741 132.838 32.4284 132.809 32.637H130.604C130.633 32.2256 130.762 31.8465 130.99 31.4997C131.222 31.15 131.559 30.8708 132.002 30.6621C132.444 30.4505 132.997 30.3447 133.66 30.3447C134.137 30.3447 134.565 30.402 134.945 30.5167C135.324 30.6283 135.646 30.7856 135.913 30.9883C136.179 31.1882 136.381 31.4233 136.52 31.6937C136.662 31.9611 136.733 32.2521 136.733 32.5665V37.2041H134.493V36.2519H134.441C134.308 36.5046 134.146 36.7089 133.955 36.8646C133.767 37.0204 133.551 37.1335 133.308 37.2041C133.068 37.2746 132.803 37.3099 132.514 37.3099ZM133.295 35.7758C133.477 35.7758 133.648 35.7376 133.807 35.6611C133.969 35.5847 134.101 35.4745 134.202 35.3305C134.304 35.1865 134.354 35.0117 134.354 34.8059V34.2417C134.291 34.2681 134.223 34.2931 134.15 34.3166C134.081 34.3401 134.006 34.3622 133.925 34.3827C133.846 34.4033 133.762 34.4224 133.673 34.44C133.586 34.4577 133.495 34.4738 133.399 34.4885C133.214 34.5179 133.062 34.5664 132.944 34.634C132.828 34.6987 132.741 34.7795 132.683 34.8765C132.628 34.9705 132.601 35.0763 132.601 35.1939C132.601 35.382 132.666 35.526 132.796 35.6259C132.926 35.7258 133.093 35.7758 133.295 35.7758Z" fill="#F1F1EF"/>
<path d="M128.659 30.4331V35.6878H129.805V39.3732H127.496V37.2043H122.443V30.4331H124.7V35.388H126.437V30.4331H128.659Z" fill="#F1F1EF"/>
<path d="M117.109 34.1008L118.966 30.4331H121.224V37.2043H118.966V33.5189L117.109 37.2043H114.852V30.4331H117.109V34.1008Z" fill="#F1F1EF"/>
<path d="M107.071 37.2043L107.054 35.3704H107.262C107.392 35.3704 107.507 35.3322 107.605 35.2558C107.706 35.1794 107.792 35.0618 107.861 34.9031C107.933 34.7444 107.99 34.5431 108.03 34.2992C108.074 34.0553 108.101 33.7658 108.113 33.4308L108.217 30.4331H113.704V37.2043H111.446V32.2493H110.335L110.231 34.0832C110.202 34.6592 110.121 35.1471 109.988 35.5467C109.858 35.9464 109.684 36.2682 109.467 36.5122C109.25 36.7531 108.998 36.9295 108.712 37.0412C108.425 37.1499 108.11 37.2043 107.766 37.2043H107.071Z" fill="#F1F1EF"/>
<path d="M102.904 37.3275C102.18 37.3275 101.561 37.182 101.046 36.8911C100.531 36.5972 100.136 36.1887 99.8611 35.6656C99.5862 35.1395 99.4487 34.5297 99.4487 33.8361C99.4487 33.1425 99.5862 32.5342 99.8611 32.0111C100.136 31.485 100.531 31.0765 101.046 30.7856C101.561 30.4917 102.18 30.3447 102.904 30.3447C103.627 30.3447 104.247 30.4917 104.762 30.7856C105.277 31.0765 105.672 31.485 105.947 32.0111C106.222 32.5342 106.359 33.1425 106.359 33.8361C106.359 34.5297 106.222 35.1395 105.947 35.6656C105.672 36.1887 105.277 36.5972 104.762 36.8911C104.247 37.182 103.627 37.3275 102.904 37.3275ZM102.921 35.5289C103.124 35.5289 103.299 35.4598 103.446 35.3217C103.594 35.1836 103.708 34.9867 103.789 34.731C103.87 34.4753 103.911 34.1711 103.911 33.8185C103.911 33.4629 103.87 33.1587 103.789 32.906C103.708 32.6503 103.594 32.4534 103.446 32.3152C103.299 32.1771 103.124 32.108 102.921 32.108C102.707 32.108 102.523 32.1771 102.37 32.3152C102.217 32.4534 102.099 32.6503 102.018 32.906C101.937 33.1587 101.897 33.4629 101.897 33.8185C101.897 34.1711 101.937 34.4753 102.018 34.731C102.099 34.9867 102.217 35.1836 102.37 35.3217C102.523 35.4598 102.707 35.5289 102.921 35.5289Z" fill="#F1F1EF"/>
<path d="M92.5103 32.2493V30.4331H98.9691V32.2493H96.8509V37.2043H94.5938V32.2493H92.5103Z" fill="#F1F1EF"/>
<path d="M88.7113 37.3275C87.9878 37.3275 87.3686 37.182 86.8535 36.8911C86.3384 36.5972 85.9434 36.1887 85.6685 35.6656C85.3936 35.1395 85.2561 34.5297 85.2561 33.8361C85.2561 33.1425 85.3936 32.5342 85.6685 32.0111C85.9434 31.485 86.3384 31.0765 86.8535 30.7856C87.3686 30.4917 87.9878 30.3447 88.7113 30.3447C89.3652 30.3447 89.931 30.4652 90.4084 30.7062C90.8888 30.9443 91.2607 31.2822 91.524 31.7201C91.7873 32.1551 91.9204 32.6664 91.9233 33.2542H89.7009C89.6691 32.8986 89.5678 32.6282 89.3971 32.4431C89.2292 32.255 89.0122 32.1609 88.746 32.1609C88.5376 32.1609 88.3553 32.2227 88.1991 32.3461C88.0428 32.4666 87.9213 32.6503 87.8344 32.8971C87.7476 33.1411 87.7042 33.4482 87.7042 33.8185C87.7042 34.1888 87.7476 34.4974 87.8344 34.7442C87.9213 34.9881 88.0428 35.1718 88.1991 35.2953C88.3553 35.4157 88.5376 35.476 88.746 35.476C88.9225 35.476 89.0788 35.4349 89.2148 35.3526C89.3508 35.2673 89.4607 35.1439 89.5447 34.9823C89.6315 34.8177 89.6836 34.6178 89.7009 34.3827H91.9233C91.9147 34.9793 91.7801 35.4995 91.5197 35.9433C91.2592 36.3841 90.8903 36.725 90.4128 36.966C89.9382 37.207 89.371 37.3275 88.7113 37.3275Z" fill="#F1F1EF"/>
<path d="M77.7293 34.1008L79.5871 30.4331H81.8442V37.2043H79.5871V33.5189L77.7293 37.2043H75.4722V30.4331H77.7293V34.1008Z" fill="#F1F1EF"/>
<path d="M67.632 34.6827L69.0905 30.4331H70.792L68.3786 37.2043H66.8855L64.5415 30.4331H66.243L67.632 34.6827ZM65.7569 30.4331V37.2043H63.4998V30.4331H65.7569ZM69.6635 37.2043V30.4331H71.8859V37.2043H69.6635Z" fill="#F1F1EF"/>
<path d="M58.1357 37.3099C57.7103 37.3099 57.3341 37.2393 57.0071 37.0983C56.683 36.9542 56.4283 36.7368 56.2431 36.4458C56.0579 36.1549 55.9653 35.7846 55.9653 35.3349C55.9653 34.9646 56.0275 34.6487 56.152 34.3871C56.2764 34.1226 56.45 33.9066 56.6729 33.7391C56.8957 33.5716 57.1547 33.4438 57.4498 33.3556C57.7479 33.2674 58.0691 33.2101 58.4135 33.1837C58.7867 33.1543 59.0863 33.119 59.312 33.0779C59.5406 33.0338 59.7055 32.9735 59.8068 32.8971C59.9081 32.8178 59.9587 32.7135 59.9587 32.5841V32.5665C59.9587 32.3902 59.8922 32.255 59.7591 32.1609C59.6259 32.0669 59.4552 32.0199 59.2469 32.0199C59.0182 32.0199 58.8316 32.0713 58.6869 32.1742C58.5451 32.2741 58.4598 32.4284 58.4308 32.637H56.2258C56.2547 32.2256 56.3835 31.8465 56.6121 31.4997C56.8436 31.15 57.1807 30.8708 57.6235 30.6621C58.0662 30.4505 58.6189 30.3447 59.2816 30.3447C59.7591 30.3447 60.1873 30.402 60.5664 30.5167C60.9455 30.6283 61.2681 30.7856 61.5344 30.9883C61.8006 31.1882 62.0032 31.4233 62.1421 31.6937C62.2839 31.9611 62.3548 32.2521 62.3548 32.5665V37.2041H60.115V36.2519H60.0629C59.9298 36.5046 59.7677 36.7089 59.5767 36.8646C59.3886 37.0204 59.1731 37.1335 58.93 37.2041C58.6898 37.2746 58.425 37.3099 58.1357 37.3099ZM58.917 35.7758C59.0993 35.7758 59.27 35.7376 59.4292 35.6611C59.5912 35.5847 59.7229 35.4745 59.8242 35.3305C59.9254 35.1865 59.9761 35.0117 59.9761 34.8059V34.2417C59.9124 34.2681 59.8444 34.2931 59.7721 34.3166C59.7026 34.3401 59.6274 34.3622 59.5464 34.3827C59.4682 34.4033 59.3843 34.4224 59.2946 34.44C59.2078 34.4577 59.1166 34.4738 59.0211 34.4885C58.8359 34.5179 58.684 34.5664 58.5654 34.634C58.4496 34.6987 58.3628 34.7795 58.3049 34.8765C58.25 34.9705 58.2225 35.0763 58.2225 35.1939C58.2225 35.382 58.2876 35.526 58.4178 35.6259C58.548 35.7258 58.7144 35.7758 58.917 35.7758Z" fill="#F1F1EF"/>
<path d="M53.73 32.8841V34.7003H50.379V32.8841H53.73ZM51.2298 30.4331V37.2043H48.9727V30.4331H51.2298ZM55.1364 30.4331V37.2043H52.8966V30.4331H55.1364Z" fill="#F1F1EF"/>
<path d="M43.6086 37.3099C43.1832 37.3099 42.807 37.2393 42.48 37.0983C42.1559 36.9542 41.9012 36.7368 41.716 36.4458C41.5308 36.1549 41.4382 35.7846 41.4382 35.3349C41.4382 34.9646 41.5004 34.6487 41.6249 34.3871C41.7493 34.1226 41.9229 33.9066 42.1458 33.7391C42.3686 33.5716 42.6276 33.4438 42.9227 33.3556C43.2208 33.2674 43.542 33.2101 43.8864 33.1837C44.2597 33.1543 44.5592 33.119 44.7849 33.0779C45.0135 33.0338 45.1784 32.9735 45.2797 32.8971C45.381 32.8178 45.4316 32.7135 45.4316 32.5841V32.5665C45.4316 32.3902 45.3651 32.255 45.232 32.1609C45.0988 32.0669 44.9281 32.0199 44.7198 32.0199C44.4912 32.0199 44.3045 32.0713 44.1598 32.1742C44.018 32.2741 43.9327 32.4284 43.9037 32.637H41.6987C41.7276 32.2256 41.8564 31.8465 42.085 31.4997C42.3165 31.15 42.6536 30.8708 43.0964 30.6621C43.5391 30.4505 44.0918 30.3447 44.7545 30.3447C45.232 30.3447 45.6602 30.402 46.0393 30.5167C46.4184 30.6283 46.7411 30.7856 47.0073 30.9883C47.2735 31.1882 47.4761 31.4233 47.615 31.6937C47.7568 31.9611 47.8277 32.2521 47.8277 32.5665V37.2041H45.5879V36.2519H45.5358C45.4027 36.5046 45.2406 36.7089 45.0496 36.8646C44.8616 37.0204 44.646 37.1335 44.4029 37.2041C44.1627 37.2746 43.8979 37.3099 43.6086 37.3099ZM44.3899 35.7758C44.5722 35.7758 44.7429 35.7376 44.9021 35.6611C45.0641 35.5847 45.1958 35.4745 45.2971 35.3305C45.3983 35.1865 45.449 35.0117 45.449 34.8059V34.2417C45.3853 34.2681 45.3173 34.2931 45.245 34.3166C45.1755 34.3401 45.1003 34.3622 45.0193 34.3827C44.9411 34.4033 44.8572 34.4224 44.7675 34.44C44.6807 34.4577 44.5895 34.4738 44.494 34.4885C44.3088 34.5179 44.1569 34.5664 44.0383 34.634C43.9225 34.6987 43.8357 34.7795 43.7778 34.8765C43.7229 34.9705 43.6954 35.0763 43.6954 35.1939C43.6954 35.382 43.7605 35.526 43.8907 35.6259C44.0209 35.7258 44.1873 35.7758 44.3899 35.7758Z" fill="#F1F1EF"/>
<path d="M33.8367 39.7432V30.4329H36.2153V31.6143H36.2674C36.3542 31.3851 36.4816 31.175 36.6494 30.9839C36.8172 30.79 37.0256 30.6357 37.2745 30.5211C37.5233 30.4035 37.8127 30.3447 38.1426 30.3447C38.5824 30.3447 39.0006 30.4638 39.397 30.7018C39.7964 30.9398 40.1205 31.3146 40.3693 31.8259C40.6211 32.3373 40.747 33.0015 40.747 33.8185C40.747 34.6002 40.6269 35.2482 40.3867 35.7625C40.1494 36.2768 39.8311 36.6604 39.4318 36.9131C39.0353 37.1658 38.5998 37.2922 38.1252 37.2922C37.8127 37.2922 37.5335 37.2408 37.2875 37.1379C37.0444 37.0321 36.8361 36.8896 36.6624 36.7103C36.4917 36.5281 36.36 36.3224 36.2674 36.0932H36.2327V39.7432H33.8367ZM36.1806 33.8185C36.1806 34.1476 36.2226 34.4327 36.3065 34.6737C36.3933 34.9117 36.5148 35.0969 36.6711 35.2291C36.8303 35.3584 37.0198 35.4231 37.2397 35.4231C37.4597 35.4231 37.6463 35.3599 37.7997 35.2335C37.9559 35.1042 38.0746 34.9205 38.1556 34.6825C38.2395 34.4415 38.2815 34.1535 38.2815 33.8185C38.2815 33.4834 38.2395 33.1969 38.1556 32.9589C38.0746 32.7179 37.9559 32.5342 37.7997 32.4078C37.6463 32.2785 37.4597 32.2138 37.2397 32.2138C37.0198 32.2138 36.8303 32.2785 36.6711 32.4078C36.5148 32.5342 36.3933 32.7179 36.3065 32.9589C36.2226 33.1969 36.1806 33.4834 36.1806 33.8185Z" fill="#F1F1EF"/>
<path d="M26.488 32.2493V30.4331H32.9469V32.2493H30.8287V37.2043H28.5715V32.2493H26.488Z" fill="#F1F1EF"/>
<path d="M22.6888 37.3275C21.9654 37.3275 21.3461 37.182 20.831 36.8911C20.3159 36.5972 19.9209 36.1887 19.646 35.6656C19.3711 35.1395 19.2336 34.5297 19.2336 33.8361C19.2336 33.1425 19.3711 32.5342 19.646 32.0111C19.9209 31.485 20.3159 31.0765 20.831 30.7856C21.3461 30.4917 21.9654 30.3447 22.6888 30.3447C23.3428 30.3447 23.9085 30.4652 24.386 30.7062C24.8664 30.9443 25.2382 31.2822 25.5015 31.7201C25.7649 32.1551 25.898 32.6664 25.9009 33.2542H23.6785C23.6466 32.8986 23.5454 32.6282 23.3746 32.4431C23.2068 32.255 22.9897 32.1609 22.7235 32.1609C22.5152 32.1609 22.3329 32.2227 22.1766 32.3461C22.0203 32.4666 21.8988 32.6503 21.812 32.8971C21.7252 33.1411 21.6818 33.4482 21.6818 33.8185C21.6818 34.1888 21.7252 34.4974 21.812 34.7442C21.8988 34.9881 22.0203 35.1718 22.1766 35.2953C22.3329 35.4157 22.5152 35.476 22.7235 35.476C22.9 35.476 23.0563 35.4349 23.1923 35.3526C23.3283 35.2673 23.4383 35.1439 23.5222 34.9823C23.609 34.8177 23.6611 34.6178 23.6785 34.3827H25.9009C25.8922 34.9793 25.7576 35.4995 25.4972 35.9433C25.2368 36.3841 24.8678 36.725 24.3903 36.966C23.9158 37.207 23.3486 37.3275 22.6888 37.3275Z" fill="#F1F1EF"/>
<path d="M12.6143 37.3275C11.8909 37.3275 11.2716 37.182 10.7565 36.8911C10.2414 36.5972 9.84645 36.1887 9.57154 35.6656C9.29663 35.1395 9.15918 34.5297 9.15918 33.8361C9.15918 33.1425 9.29663 32.5342 9.57154 32.0111C9.84645 31.485 10.2414 31.0765 10.7565 30.7856C11.2716 30.4917 11.8909 30.3447 12.6143 30.3447C13.3378 30.3447 13.957 30.4917 14.4721 30.7856C14.9872 31.0765 15.3822 31.485 15.6571 32.0111C15.932 32.5342 16.0695 33.1425 16.0695 33.8361C16.0695 34.5297 15.932 35.1395 15.6571 35.6656C15.3822 36.1887 14.9872 36.5972 14.4721 36.8911C13.957 37.182 13.3378 37.3275 12.6143 37.3275ZM12.6317 35.5289C12.8343 35.5289 13.0093 35.4598 13.1569 35.3217C13.3045 35.1836 13.4188 34.9867 13.4998 34.731C13.5809 34.4753 13.6214 34.1711 13.6214 33.8185C13.6214 33.4629 13.5809 33.1587 13.4998 32.906C13.4188 32.6503 13.3045 32.4534 13.1569 32.3152C13.0093 32.1771 12.8343 32.108 12.6317 32.108C12.4176 32.108 12.2338 32.1771 12.0804 32.3152C11.9271 32.4534 11.8099 32.6503 11.7288 32.906C11.6478 33.1587 11.6073 33.4629 11.6073 33.8185C11.6073 34.1711 11.6478 34.4753 11.7288 34.731C11.8099 34.9867 11.9271 35.1836 12.0804 35.3217C12.2338 35.4598 12.4176 35.5289 12.6317 35.5289Z" fill="#F1F1EF"/>
<path d="M1.96558 37.2043V30.4331H8.18138V37.2043H5.92424V32.2493H4.18799V37.2043H1.96558Z" fill="#F1F1EF"/>
</svg>
