<svg width="14" height="14" viewBox="0 0 14 14" fill="none" xmlns="http://www.w3.org/2000/svg">
<path d="M7.92308 1.92308C7.92308 1.4125 7.51058 1 7 1C6.48942 1 6.07692 1.4125 6.07692 1.92308V6.07692H1.92308C1.4125 6.07692 1 6.48942 1 7C1 7.51058 1.4125 7.92308 1.92308 7.92308H6.07692V12.0769C6.07692 12.5875 6.48942 13 7 13C7.51058 13 7.92308 12.5875 7.92308 12.0769V7.92308H12.0769C12.5875 7.92308 13 7.51058 13 7C13 6.48942 12.5875 6.07692 12.0769 6.07692H7.92308V1.92308Z" fill="#125365" stroke="#125365" stroke-width="0.5"/>
</svg>
