<svg width="22" height="22" viewBox="0 0 22 22" fill="none" xmlns="http://www.w3.org/2000/svg">
<circle cx="11" cy="11" r="10" stroke="#F1F1EF" stroke-width="2"/>
<path d="M14.7256 8.39237C15.0349 8.08314 15.0349 7.58095 14.7256 7.27172C14.4164 6.96249 13.9142 6.96249 13.605 7.27172L11 9.87914L8.39261 7.27419C8.08338 6.96496 7.58119 6.96496 7.27196 7.27419C6.96273 7.58342 6.96273 8.08561 7.27196 8.39484L9.87939 10.9998L7.27444 13.6072C6.96521 13.9165 6.96521 14.4186 7.27444 14.7279C7.58367 15.0371 8.08585 15.0371 8.39508 14.7279L11 12.1204L13.6075 14.7254C13.9167 15.0346 14.4189 15.0346 14.7281 14.7254C15.0373 14.4162 15.0373 13.914 14.7281 13.6047L12.1207 10.9998L14.7256 8.39237Z" fill="#F1F1EF" stroke="#F1F1EF" stroke-width="0.5"/>
</svg>
